# xmcd
#
# Track frame offsets:
#	150
#	18109
#	36237
#	51745
#	68454
#	90270
#	108127
#	123337
#	138845
#	154122
#
# Disc length: 2295 seconds
#
# Revision: 21
# Processed by: cddbd v1.5.2PL0 Copyright (c) Steve Scherf et al.
# Submitted via: Jack! The Knife 20 Magnifico
#
DISCID=7408f50a
DTITLE=Savatage - Fight For The Rock
DYEAR=1986
DGENRE=Heavy Metal
TTITLE0=Fight For The Rock
TTITLE1=Out On The Streets
TTITLE2=Crying For Love
TTITLE3=Day After Day
TTITLE4=The Edge Of Midnight
TTITLE5=Hyde
TTITLE6=Lady In Disguise
TTITLE7=She's Only Rock 'N Roll
TTITLE8=Wishing Well
TTITLE9=Red Light Paradise
EXTD=Stephan Galfas
EXTT0=C. Oliva, J. Oliva, Wacholz
EXTT1=C. Oliva, J. Oliva
EXTT2=C. Oliva, J. Oliva
EXTT3=Pete Ham
EXTT4=C. Oliva, J. Oliva, Wacholz
EXTT5=C. Oliva, J. Oliva, Wacholz
EXTT6=Jon Oliva
EXTT7=C. Oliva, J. Oliva
EXTT8=Bundrick, Kossoff, Kirke, Rodgers, Yamauchi
EXTT9=Middleton, C. Oliva, J. Oliva
PLAYORDER=
